<svg id="Capa_1" enable-background="new 0 0 512 512" height="512" viewBox="0 0 512 512" width="512" xmlns="http://www.w3.org/2000/svg"><g><path d="m311.224 220.513c2.11-3.746 3.271-8.608 3.271-13.691 0-12.988-6.878-22.06-16.727-22.06h-25.597c-4.219 0-9.145 2.469-9.145 9.439l.085 50.704c.007 4.138 3.363 7.487 7.5 7.487h.013c4.142-.007 7.494-3.37 7.487-7.513l-.026-15.998h19.683c5.555.001 10.46-3.049 13.456-8.368zm-33.163-6.631-.023-14.12h19.601c.565.539 1.857 2.921 1.857 7.06 0 4.141-1.292 6.521-1.857 7.061h-19.578z"/><path d="m105.381 252.393c4.143 0 7.5-3.357 7.5-7.5v-52.631c0-4.143-3.357-7.5-7.5-7.5s-7.5 3.357-7.5 7.5v18.815h-23.41v-18.815c0-4.143-3.357-7.5-7.5-7.5s-7.5 3.357-7.5 7.5v52.631c0 4.143 3.357 7.5 7.5 7.5s7.5-3.357 7.5-7.5v-18.815h23.41v18.815c0 4.143 3.357 7.5 7.5 7.5z"/><path d="m156.546 252.393c4.143 0 7.5-3.357 7.5-7.5v-45.131h11.719c4.143 0 7.5-3.357 7.5-7.5s-3.357-7.5-7.5-7.5h-38.409c-4.143 0-7.5 3.357-7.5 7.5s3.357 7.5 7.5 7.5h11.69v45.131c0 4.143 3.357 7.5 7.5 7.5z"/><path d="m220.185 252.393c4.143 0 7.5-3.357 7.5-7.5v-45.131h11.69c4.143 0 7.5-3.357 7.5-7.5s-3.357-7.5-7.5-7.5h-38.41c-4.143 0-7.5 3.357-7.5 7.5s3.357 7.5 7.5 7.5h11.72v45.131c0 4.143 3.357 7.5 7.5 7.5z"/><path d="m348.452 224.774c-4.143 0-7.5 3.399-7.5 7.542s3.357 7.5 7.5 7.5 7.5-3.357 7.5-7.5v-.085c0-4.143-3.357-7.457-7.5-7.457z"/><path d="m355.952 200.817c0-4.143-3.357-7.457-7.5-7.457s-7.5 3.399-7.5 7.542 3.357 7.5 7.5 7.5 7.5-3.357 7.5-7.5z"/><path d="m383.583 251.756c.983.434 2.01.639 3.02.639 2.882 0 5.631-1.671 6.867-4.479l23.188-52.631c1.67-3.79-.049-8.217-3.84-9.887-3.789-1.671-8.217.049-9.887 3.84l-23.188 52.631c-1.67 3.791.049 8.217 3.84 9.887z"/><path d="m425.438 252.395c2.882 0 5.631-1.671 6.867-4.479l23.188-52.631c1.67-3.79-.049-8.217-3.84-9.887-3.789-1.671-8.218.049-9.887 3.84l-23.188 52.631c-1.67 3.79.049 8.217 3.84 9.887.983.434 2.01.639 3.02.639z"/><path d="m272.455 323.166h-237.459c-11.025 0-19.996-8.975-19.996-20.005v-161.688c0-11.015 8.971-19.977 19.996-19.977h328.083c4.143 0 7.5-3.357 7.5-7.5s-3.357-7.5-7.5-7.5h-328.083c-19.297.001-34.996 15.691-34.996 34.977v161.688c0 19.302 15.699 35.005 34.996 35.005h237.459c4.143 0 7.5-3.357 7.5-7.5s-3.357-7.5-7.5-7.5z"/><path d="m477.004 106.497h-79.314c-4.143 0-7.5 3.357-7.5 7.5s3.357 7.5 7.5 7.5h79.314c11.025 0 19.996 8.962 19.996 19.977v161.688c0 11.03-8.971 20.005-19.996 20.005h-92.658l-5.254-5.492 10.138-9.204c2.498-2.283 3.644-5.595 3.065-8.857-.604-3.399-3-6.266-6.411-7.667-.494-.202-1.009-.352-1.534-.445l-77.188-13.738c-.234-.042-.472-.072-.709-.092l-.145-.012c-1.625-.132-4.647-.379-7.286 1.967-.11.098-.217.198-.321.302-2.451 2.452-2.451 5.39-2.451 7.146 0 .19.007.38.021.569l5.952 78.124c.04.523.135 1.041.282 1.544 1.036 3.529 3.643 6.203 6.972 7.152 3.199.915 6.611.11 9.157-2.165l10.466-9.431 37.925 39.646c1.851 1.988 4.286 2.992 6.77 2.992 2.276 0 4.593-.844 6.535-2.549.028-.025.057-.051.086-.077l35.61-32.215c4.086-3.71 4.468-9.491.888-13.446-.047-.051-.094-.102-.141-.151l-18.079-18.899h78.309c19.297 0 34.996-15.703 34.996-35.005v-161.691c.001-19.286-15.698-34.976-34.995-34.976zm-75.107 256.717-27.719 25.075-39.271-41.054c-1.472-1.537-3.443-2.315-5.422-2.315-1.791 0-3.587.639-5.019 1.929l-8.087 7.287-4.595-60.316 59.584 10.605-8.061 7.317c-1.497 1.359-2.382 3.268-2.453 5.289s.677 3.986 2.075 5.448z"/></g></svg>