<svg id="Capa_1" enable-background="new 0 0 512.001 512.001" height="512" viewBox="0 0 512.001 512.001" width="512" xmlns="http://www.w3.org/2000/svg"><g><path d="m450.185 324.194h-68.517c-4.142 0-7.5 3.357-7.5 7.5s3.358 7.5 7.5 7.5h68.517c4.142 0 7.5-3.357 7.5-7.5s-3.358-7.5-7.5-7.5z"/><path d="m63.602 339.194h283.75c4.142 0 7.5-3.357 7.5-7.5s-3.358-7.5-7.5-7.5h-283.75c-4.142 0-7.5 3.357-7.5 7.5s3.358 7.5 7.5 7.5z"/><path d="m63.602 295.556h386.583c4.142 0 7.5-3.357 7.5-7.5s-3.358-7.5-7.5-7.5h-386.583c-4.142 0-7.5 3.357-7.5 7.5s3.358 7.5 7.5 7.5z"/><path d="m63.602 246.165h115.908c4.142 0 7.5-3.357 7.5-7.5s-3.358-7.5-7.5-7.5h-115.908c-4.142 0-7.5 3.357-7.5 7.5s3.358 7.5 7.5 7.5z"/><path d="m63.529 382.831h386.583c4.142 0 7.5-3.357 7.5-7.5s-3.358-7.5-7.5-7.5h-386.583c-4.142 0-7.5 3.357-7.5 7.5s3.358 7.5 7.5 7.5z"/><path d="m52.557 82.501c-12.44 0-22.561 10.094-22.561 22.5s10.121 22.5 22.561 22.5 22.561-10.094 22.561-22.5-10.121-22.5-22.561-22.5zm0 30c-4.169 0-7.561-3.364-7.561-7.5s3.392-7.5 7.561-7.5 7.561 3.364 7.561 7.5-3.392 7.5-7.561 7.5z"/><path d="m117.82 82.501c-12.44 0-22.561 10.094-22.561 22.5s10.121 22.5 22.561 22.5 22.561-10.094 22.561-22.5-10.121-22.5-22.561-22.5zm0 30c-4.169 0-7.561-3.364-7.561-7.5s3.392-7.5 7.561-7.5 7.561 3.364 7.561 7.5-3.392 7.5-7.561 7.5z"/><path d="m181.2 82.501c-12.44 0-22.561 10.094-22.561 22.5s10.121 22.5 22.561 22.5 22.561-10.094 22.561-22.5-10.121-22.5-22.561-22.5zm0 30c-4.169 0-7.561-3.364-7.561-7.5s3.392-7.5 7.561-7.5 7.561 3.364 7.561 7.5-3.392 7.5-7.561 7.5z"/><path d="m459.445 82.501h-135.444c-4.142 0-7.5 3.357-7.5 7.5s3.358 7.5 7.5 7.5h135.444c4.169 0 7.561 3.364 7.561 7.5s-3.392 7.5-7.561 7.5h-210.849c-4.169 0-7.561-3.364-7.561-7.5s3.392-7.5 7.561-7.5h40.405c4.142 0 7.5-3.357 7.5-7.5s-3.358-7.5-7.5-7.5h-40.405c-12.44 0-22.561 10.094-22.561 22.5s10.121 22.5 22.561 22.5h210.849c12.44 0 22.561-10.094 22.561-22.5s-10.121-22.5-22.561-22.5z"/><path d="m474.501 54h-437c-20.678 0-37.5 16.822-37.5 37.5v96.5c-.142 9.734 15.143 9.729 15 0v-31.417h482v263.917c0 12.406-10.093 22.5-22.5 22.5h-330.5c-4.142 0-7.5 3.357-7.5 7.5s3.358 7.5 7.5 7.5h330.5c20.678 0 37.5-16.822 37.5-37.5v-329c0-20.677-16.822-37.5-37.5-37.5zm-459.5 87.584v-50.083c0-12.406 10.093-22.5 22.5-22.5h437c12.407 0 22.5 10.094 22.5 22.5v50.083z"/><path d="m109.001 443h-71.5c-12.407 0-22.5-10.094-22.5-22.5v-197.5c.142-9.734-15.143-9.729-15 0v197.5c0 20.678 16.822 37.5 37.5 37.5h71.5c4.142 0 7.5-3.357 7.5-7.5s-3.358-7.5-7.5-7.5z"/></g></svg>